solid WEFT-form-test-0nobump
facet normal 0.38268343236509 0.0 0.923879532511287
outer loop
vertex 70.25 0.0 4.33012701892219
vertex 69.0440952255126 60.0 4.82962913144534
vertex 69.0440952255126 0.0 4.82962913144534
endloop
endfacet
facet normal 0.38268343236509 0.0 0.923879532511287
outer loop
vertex 69.0440952255126 60.0 4.82962913144534
vertex 70.25 0.0 4.33012701892219
vertex 70.25 60.0 4.33012701892219
endloop
endfacet
facet normal -0.0 0.0 1.0
outer loop
vertex 67.75 0.0 5.0
vertex 5.0 60.0 5.0
vertex 5.0 0.0 5.0
endloop
endfacet
facet normal -0.0 0.0 1.0
outer loop
vertex 5.0 60.0 5.0
vertex 67.75 0.0 5.0
vertex 67.75 60.0 5.0
endloop
endfacet
facet normal 0.0 0.0 -1.0
outer loop
vertex 72.75 60.0 0.0
vertex 0.0 0.0 0.0
vertex 0.0 60.0 0.0
endloop
endfacet
facet normal 0.0 0.0 -1.0
outer loop
vertex 0.0 0.0 0.0
vertex 72.75 60.0 0.0
vertex 72.75 0.0 0.0
endloop
endfacet
facet normal -0.0 1.0 -0.0
outer loop
vertex 0.170370868554658 60.0 1.2940952255126
vertex 72.75 60.0 0.0
vertex 0.0 60.0 0.0
endloop
endfacet
facet normal -0.0 1.0 -0.0
outer loop
vertex 72.75 60.0 0.0
vertex 0.170370868554658 60.0 1.2940952255126
vertex 72.5796291314453 60.0 1.2940952255126
endloop
endfacet
facet normal -0.0 1.0 -0.0
outer loop
vertex 72.5796291314453 60.0 1.2940952255126
vertex 0.170370868554658 60.0 1.2940952255126
vertex 0.669872981077805 60.0 2.5
endloop
endfacet
facet normal -0.0 1.0 -0.0
outer loop
vertex 72.5796291314453 60.0 1.2940952255126
vertex 0.669872981077805 60.0 2.5
vertex 72.0801270189222 60.0 2.5
endloop
endfacet
facet normal -0.0 1.0 -0.0
outer loop
vertex 72.0801270189222 60.0 2.5
vertex 0.669872981077805 60.0 2.5
vertex 1.46446609406726 60.0 3.53553390593274
endloop
endfacet
facet normal -0.0 1.0 -0.0
outer loop
vertex 72.0801270189222 60.0 2.5
vertex 1.46446609406726 60.0 3.53553390593274
vertex 71.2855339059327 60.0 3.53553390593274
endloop
endfacet
facet normal -0.0 1.0 -0.0
outer loop
vertex 71.2855339059327 60.0 3.53553390593274
vertex 1.46446609406726 60.0 3.53553390593274
vertex 2.5 60.0 4.33012701892219
endloop
endfacet
facet normal -0.0 1.0 -0.0
outer loop
vertex 71.2855339059327 60.0 3.53553390593274
vertex 2.5 60.0 4.33012701892219
vertex 70.25 60.0 4.33012701892219
endloop
endfacet
facet normal -0.0 1.0 -0.0
outer loop
vertex 70.25 60.0 4.33012701892219
vertex 2.5 60.0 4.33012701892219
vertex 3.70590477448739 60.0 4.82962913144534
endloop
endfacet
facet normal -0.0 1.0 -0.0
outer loop
vertex 70.25 60.0 4.33012701892219
vertex 3.70590477448739 60.0 4.82962913144534
vertex 69.0440952255126 60.0 4.82962913144534
endloop
endfacet
facet normal -0.0 1.0 -0.0
outer loop
vertex 69.0440952255126 60.0 4.82962913144534
vertex 3.70590477448739 60.0 4.82962913144534
vertex 5.0 60.0 5.0
endloop
endfacet
facet normal -0.0 1.0 -0.0
outer loop
vertex 69.0440952255126 60.0 4.82962913144534
vertex 5.0 60.0 5.0
vertex 67.75 60.0 5.0
endloop
endfacet
facet normal -0.923879532511287 0.0 0.382683432365089
outer loop
vertex 0.669872981077805 60.0 2.5
vertex 0.170370868554658 0.0 1.2940952255126
vertex 0.669872981077805 0.0 2.5
endloop
endfacet
facet normal -0.923879532511287 0.0 0.382683432365089
outer loop
vertex 0.170370868554658 0.0 1.2940952255126
vertex 0.669872981077805 60.0 2.5
vertex 0.170370868554658 60.0 1.2940952255126
endloop
endfacet
facet normal -0.130526192220052 0.0 0.99144486137381
outer loop
vertex 5.0 0.0 5.0
vertex 3.70590477448739 60.0 4.82962913144534
vertex 3.70590477448739 0.0 4.82962913144534
endloop
endfacet
facet normal -0.130526192220052 0.0 0.99144486137381
outer loop
vertex 3.70590477448739 60.0 4.82962913144534
vertex 5.0 0.0 5.0
vertex 5.0 60.0 5.0
endloop
endfacet
facet normal -0.382683432365091 0.0 0.923879532511287
outer loop
vertex 3.70590477448739 0.0 4.82962913144534
vertex 2.5 60.0 4.33012701892219
vertex 2.5 0.0 4.33012701892219
endloop
endfacet
facet normal -0.382683432365091 0.0 0.923879532511287
outer loop
vertex 2.5 60.0 4.33012701892219
vertex 3.70590477448739 0.0 4.82962913144534
vertex 3.70590477448739 60.0 4.82962913144534
endloop
endfacet
facet normal -0.60876142900872 0.0 0.793353340291235
outer loop
vertex 2.5 0.0 4.33012701892219
vertex 1.46446609406726 60.0 3.53553390593274
vertex 1.46446609406726 0.0 3.53553390593274
endloop
endfacet
facet normal -0.60876142900872 0.0 0.793353340291235
outer loop
vertex 1.46446609406726 60.0 3.53553390593274
vertex 2.5 0.0 4.33012701892219
vertex 2.5 60.0 4.33012701892219
endloop
endfacet
facet normal 0.130526192220052 0.0 0.99144486137381
outer loop
vertex 69.0440952255126 0.0 4.82962913144534
vertex 67.75 60.0 5.0
vertex 67.75 0.0 5.0
endloop
endfacet
facet normal 0.130526192220052 0.0 0.99144486137381
outer loop
vertex 67.75 60.0 5.0
vertex 69.0440952255126 0.0 4.82962913144534
vertex 69.0440952255126 60.0 4.82962913144534
endloop
endfacet
facet normal 0.991444861373809 -0.0 0.130526192220064
outer loop
vertex 72.75 60.0 0.0
vertex 72.5796291314453 0.0 1.2940952255126
vertex 72.75 0.0 0.0
endloop
endfacet
facet normal 0.991444861373809 -0.0 0.130526192220064
outer loop
vertex 72.5796291314453 0.0 1.2940952255126
vertex 72.75 60.0 0.0
vertex 72.5796291314453 60.0 1.2940952255126
endloop
endfacet
facet normal 0.60876142900872 0.0 0.793353340291236
outer loop
vertex 71.2855339059327 0.0 3.53553390593274
vertex 70.25 60.0 4.33012701892219
vertex 70.25 0.0 4.33012701892219
endloop
endfacet
facet normal 0.60876142900872 0.0 0.793353340291236
outer loop
vertex 70.25 60.0 4.33012701892219
vertex 71.2855339059327 0.0 3.53553390593274
vertex 71.2855339059327 60.0 3.53553390593274
endloop
endfacet
facet normal 0.793353340291235 0.0 0.60876142900872
outer loop
vertex 72.0801270189222 60.0 2.5
vertex 71.2855339059327 0.0 3.53553390593274
vertex 72.0801270189222 0.0 2.5
endloop
endfacet
facet normal 0.793353340291235 0.0 0.60876142900872
outer loop
vertex 71.2855339059327 0.0 3.53553390593274
vertex 72.0801270189222 60.0 2.5
vertex 71.2855339059327 60.0 3.53553390593274
endloop
endfacet
facet normal -0.99144486137381 0.0 0.130526192220051
outer loop
vertex 0.170370868554658 60.0 1.2940952255126
vertex 0.0 0.0 0.0
vertex 0.170370868554658 0.0 1.2940952255126
endloop
endfacet
facet normal -0.99144486137381 0.0 0.130526192220051
outer loop
vertex 0.0 0.0 0.0
vertex 0.170370868554658 60.0 1.2940952255126
vertex 0.0 60.0 0.0
endloop
endfacet
facet normal -0.0 1.0 -0.0
outer loop
vertex 0.170370868554658 0.0 1.2940952255126
vertex 72.75 0.0 0.0
vertex 0.0 0.0 0.0
endloop
endfacet
facet normal -0.0 1.0 -0.0
outer loop
vertex 72.75 0.0 0.0
vertex 0.170370868554658 0.0 1.2940952255126
vertex 72.5796291314453 0.0 1.2940952255126
endloop
endfacet
facet normal -0.0 1.0 -0.0
outer loop
vertex 72.5796291314453 0.0 1.2940952255126
vertex 0.170370868554658 0.0 1.2940952255126
vertex 0.669872981077805 0.0 2.5
endloop
endfacet
facet normal -0.0 1.0 -0.0
outer loop
vertex 72.5796291314453 0.0 1.2940952255126
vertex 0.669872981077805 0.0 2.5
vertex 72.0801270189222 0.0 2.5
endloop
endfacet
facet normal -0.0 1.0 -0.0
outer loop
vertex 72.0801270189222 0.0 2.5
vertex 0.669872981077805 0.0 2.5
vertex 1.46446609406726 0.0 3.53553390593274
endloop
endfacet
facet normal -0.0 1.0 -0.0
outer loop
vertex 72.0801270189222 0.0 2.5
vertex 1.46446609406726 0.0 3.53553390593274
vertex 71.2855339059327 0.0 3.53553390593274
endloop
endfacet
facet normal -0.0 1.0 -0.0
outer loop
vertex 71.2855339059327 0.0 3.53553390593274
vertex 1.46446609406726 0.0 3.53553390593274
vertex 2.5 0.0 4.33012701892219
endloop
endfacet
facet normal -0.0 1.0 -0.0
outer loop
vertex 71.2855339059327 0.0 3.53553390593274
vertex 2.5 0.0 4.33012701892219
vertex 70.25 0.0 4.33012701892219
endloop
endfacet
facet normal -0.0 1.0 -0.0
outer loop
vertex 70.25 0.0 4.33012701892219
vertex 2.5 0.0 4.33012701892219
vertex 3.70590477448739 0.0 4.82962913144534
endloop
endfacet
facet normal -0.0 1.0 -0.0
outer loop
vertex 70.25 0.0 4.33012701892219
vertex 3.70590477448739 0.0 4.82962913144534
vertex 69.0440952255126 0.0 4.82962913144534
endloop
endfacet
facet normal -0.0 1.0 -0.0
outer loop
vertex 69.0440952255126 0.0 4.82962913144534
vertex 3.70590477448739 0.0 4.82962913144534
vertex 5.0 0.0 5.0
endloop
endfacet
facet normal -0.0 1.0 -0.0
outer loop
vertex 69.0440952255126 0.0 4.82962913144534
vertex 5.0 0.0 5.0
vertex 67.75 0.0 5.0
endloop
endfacet
facet normal -0.793353340291236 0.0 0.60876142900872
outer loop
vertex 1.46446609406726 60.0 3.53553390593274
vertex 0.669872981077805 0.0 2.5
vertex 1.46446609406726 0.0 3.53553390593274
endloop
endfacet
facet normal -0.793353340291236 0.0 0.60876142900872
outer loop
vertex 0.669872981077805 0.0 2.5
vertex 1.46446609406726 60.0 3.53553390593274
vertex 0.669872981077805 60.0 2.5
endloop
endfacet
facet normal 0.923879532511287 0.0 0.382683432365089
outer loop
vertex 72.5796291314453 60.0 1.2940952255126
vertex 72.0801270189222 0.0 2.5
vertex 72.5796291314453 0.0 1.2940952255126
endloop
endfacet
facet normal 0.923879532511287 0.0 0.382683432365089
outer loop
vertex 72.0801270189222 0.0 2.5
vertex 72.5796291314453 60.0 1.2940952255126
vertex 72.0801270189222 60.0 2.5
endloop
endfacet
endsolid WEFT-form-test-0nobump
