solid WEFT-form-test-0
facet normal 0.326641445735651 -0.0 0.945148330119523
outer loop
vertex 68.7855339059326 0.0 4.57106781186546
vertex 66.8349364905389 60.0 5.24519052838327
vertex 66.8349364905389 0.0 5.24519052838327
endloop
endfacet
facet normal 0.326641445735651 -0.0 0.945148330119523
outer loop
vertex 66.8349364905389 60.0 5.24519052838327
vertex 68.7855339059326 0.0 4.57106781186546
vertex 68.7855339059326 60.0 4.57106781186546
endloop
endfacet
facet normal 1.74528752094317e-16 1.0 3.30861536738813e-32
outer loop
vertex 3.96446609406726 60.0 4.57106781186548
vertex 10.0 60.0 5.0
vertex 62.7499999999999 60.0 4.99999999999999
endloop
endfacet
facet normal 1.74528752094317e-16 1.0 3.30861536738813e-32
outer loop
vertex 10.0 60.0 5.0
vertex 3.96446609406726 60.0 4.57106781186548
vertex 5.9150635094611 60.0 5.24519052838329
endloop
endfacet
facet normal 1.74528752094317e-16 1.0 3.30861536738813e-32
outer loop
vertex 10.0 60.0 5.0
vertex 5.9150635094611 60.0 5.24519052838329
vertex 7.97367172745376 60.0 5.39149130992432
endloop
endfacet
facet normal 1.74528752094317e-16 1.0 3.30861536738813e-32
outer loop
vertex 0.0 60.0 0.0
vertex 71.8473960844116 60.0 1.85595740399156
vertex 72.75 60.0 -1.09026535628392e-14
endloop
endfacet
facet normal 1.74528752094317e-16 1.0 3.30861536738813e-32
outer loop
vertex 71.8473960844116 60.0 1.85595740399156
vertex 0.0 60.0 0.0
vertex 0.902603915588288 60.0 1.85595740399157
endloop
endfacet
facet normal 1.74528752094317e-16 1.0 3.30861536738813e-32
outer loop
vertex 71.8473960844116 60.0 1.85595740399156
vertex 0.902603915588288 60.0 1.85595740399157
vertex 70.4951905283832 60.0 3.41506350946108
endloop
endfacet
facet normal 1.74528752094317e-16 1.0 3.30861536738813e-32
outer loop
vertex 70.4951905283832 60.0 3.41506350946108
vertex 0.902603915588288 60.0 1.85595740399157
vertex 2.25480947161671 60.0 3.4150635094611
endloop
endfacet
facet normal 1.74528752094317e-16 1.0 3.30861536738813e-32
outer loop
vertex 70.4951905283832 60.0 3.41506350946108
vertex 2.25480947161671 60.0 3.4150635094611
vertex 68.7855339059326 60.0 4.57106781186546
endloop
endfacet
facet normal 1.74528752094317e-16 1.0 3.30861536738813e-32
outer loop
vertex 68.7855339059326 60.0 4.57106781186546
vertex 2.25480947161671 60.0 3.4150635094611
vertex 3.96446609406726 60.0 4.57106781186548
endloop
endfacet
facet normal 1.74528752094317e-16 1.0 3.30861536738813e-32
outer loop
vertex 68.7855339059326 60.0 4.57106781186546
vertex 3.96446609406726 60.0 4.57106781186548
vertex 62.7499999999999 60.0 4.99999999999999
endloop
endfacet
facet normal 1.74528752094317e-16 1.0 3.30861536738813e-32
outer loop
vertex 68.7855339059326 60.0 4.57106781186546
vertex 62.7499999999999 60.0 4.99999999999999
vertex 66.8349364905389 60.0 5.24519052838327
endloop
endfacet
facet normal 1.74528752094317e-16 1.0 3.30861536738813e-32
outer loop
vertex 66.8349364905389 60.0 5.24519052838327
vertex 62.7499999999999 60.0 4.99999999999999
vertex 64.7763282725462 60.0 5.3914913099243
endloop
endfacet
facet normal -0.0 1.0 -0.0
outer loop
vertex 3.96446609406726 0.0 4.57106781186548
vertex 10.0 0.0 5.0
vertex 62.7499999999999 0.0 4.99999999999999
endloop
endfacet
facet normal -0.0 1.0 -0.0
outer loop
vertex 10.0 0.0 5.0
vertex 3.96446609406726 0.0 4.57106781186548
vertex 5.9150635094611 0.0 5.24519052838329
endloop
endfacet
facet normal -0.0 1.0 -0.0
outer loop
vertex 10.0 0.0 5.0
vertex 5.9150635094611 0.0 5.24519052838329
vertex 7.97367172745376 0.0 5.39149130992432
endloop
endfacet
facet normal -0.0 1.0 -0.0
outer loop
vertex 0.0 0.0 0.0
vertex 71.8473960844116 0.0 1.85595740399156
vertex 72.75 0.0 -1.09026535628392e-14
endloop
endfacet
facet normal -0.0 1.0 -0.0
outer loop
vertex 71.8473960844116 0.0 1.85595740399156
vertex 0.0 0.0 0.0
vertex 0.902603915588288 0.0 1.85595740399157
endloop
endfacet
facet normal -0.0 1.0 -0.0
outer loop
vertex 71.8473960844116 0.0 1.85595740399156
vertex 0.902603915588288 0.0 1.85595740399157
vertex 70.4951905283832 0.0 3.41506350946108
endloop
endfacet
facet normal -0.0 1.0 -0.0
outer loop
vertex 70.4951905283832 0.0 3.41506350946108
vertex 0.902603915588288 0.0 1.85595740399157
vertex 2.25480947161671 0.0 3.4150635094611
endloop
endfacet
facet normal -0.0 1.0 -0.0
outer loop
vertex 70.4951905283832 0.0 3.41506350946108
vertex 2.25480947161671 0.0 3.4150635094611
vertex 68.7855339059326 0.0 4.57106781186546
endloop
endfacet
facet normal -0.0 1.0 -0.0
outer loop
vertex 68.7855339059326 0.0 4.57106781186546
vertex 2.25480947161671 0.0 3.4150635094611
vertex 3.96446609406726 0.0 4.57106781186548
endloop
endfacet
facet normal -0.0 1.0 -0.0
outer loop
vertex 68.7855339059326 0.0 4.57106781186546
vertex 3.96446609406726 0.0 4.57106781186548
vertex 62.7499999999999 0.0 4.99999999999999
endloop
endfacet
facet normal -0.0 1.0 -0.0
outer loop
vertex 68.7855339059326 0.0 4.57106781186546
vertex 62.7499999999999 0.0 4.99999999999999
vertex 66.8349364905389 0.0 5.24519052838327
endloop
endfacet
facet normal -0.0 1.0 -0.0
outer loop
vertex 66.8349364905389 0.0 5.24519052838327
vertex 62.7499999999999 0.0 4.99999999999999
vertex 64.7763282725462 0.0 5.3914913099243
endloop
endfacet
facet normal -0.070889020090679 -0.0 0.997484208812643
outer loop
vertex 7.97367172745376 0.0 5.39149130992432
vertex 5.9150635094611 60.0 5.24519052838329
vertex 5.9150635094611 0.0 5.24519052838329
endloop
endfacet
facet normal -0.070889020090679 -0.0 0.997484208812643
outer loop
vertex 5.9150635094611 60.0 5.24519052838329
vertex 7.97367172745376 0.0 5.39149130992432
vertex 7.97367172745376 60.0 5.39149130992432
endloop
endfacet
facet normal 0.755453954995715 -0.0 0.655201741360119
outer loop
vertex 71.8473960844116 60.0 1.85595740399156
vertex 70.4951905283832 0.0 3.41506350946108
vertex 71.8473960844116 0.0 1.85595740399156
endloop
endfacet
facet normal 0.755453954995715 -0.0 0.655201741360119
outer loop
vertex 70.4951905283832 0.0 3.41506350946108
vertex 71.8473960844116 60.0 1.85595740399156
vertex 70.4951905283832 60.0 3.41506350946108
endloop
endfacet
facet normal 0.560133796654222 -0.0 0.828402154660239
outer loop
vertex 70.4951905283832 0.0 3.41506350946108
vertex 68.7855339059326 60.0 4.57106781186546
vertex 68.7855339059326 0.0 4.57106781186546
endloop
endfacet
facet normal 0.560133796654222 -0.0 0.828402154660239
outer loop
vertex 68.7855339059326 60.0 4.57106781186546
vertex 70.4951905283832 0.0 3.41506350946108
vertex 70.4951905283832 60.0 3.41506350946108
endloop
endfacet
facet normal -0.89929117475091 0.0 0.437350412158407
outer loop
vertex 0.902603915588288 60.0 1.85595740399157
vertex 0.0 0.0 0.0
vertex 0.902603915588288 0.0 1.85595740399157
endloop
endfacet
facet normal -0.89929117475091 0.0 0.437350412158407
outer loop
vertex 0.0 0.0 0.0
vertex 0.902603915588288 60.0 1.85595740399157
vertex 0.0 60.0 0.0
endloop
endfacet
facet normal -0.189694375123818 -0.0 0.981843187095772
outer loop
vertex 64.7763282725462 0.0 5.3914913099243
vertex 62.7499999999999 60.0 4.99999999999999
vertex 62.7499999999999 0.0 4.99999999999999
endloop
endfacet
facet normal -0.189694375123818 -0.0 0.981843187095772
outer loop
vertex 62.7499999999999 60.0 4.99999999999999
vertex 64.7763282725462 0.0 5.3914913099243
vertex 64.7763282725462 60.0 5.3914913099243
endloop
endfacet
facet normal -0.326641445735643 -0.0 0.945148330119526
outer loop
vertex 5.9150635094611 0.0 5.24519052838329
vertex 3.96446609406726 60.0 4.57106781186548
vertex 3.96446609406726 0.0 4.57106781186548
endloop
endfacet
facet normal -0.326641445735643 -0.0 0.945148330119526
outer loop
vertex 3.96446609406726 60.0 4.57106781186548
vertex 5.9150635094611 0.0 5.24519052838329
vertex 5.9150635094611 60.0 5.24519052838329
endloop
endfacet
facet normal 0.899291174750899 -0.0 0.43735041215843
outer loop
vertex 72.75 60.0 -1.09026535628392e-14
vertex 71.8473960844116 0.0 1.85595740399156
vertex 72.75 0.0 -1.09026535628392e-14
endloop
endfacet
facet normal 0.899291174750899 -0.0 0.43735041215843
outer loop
vertex 71.8473960844116 0.0 1.85595740399156
vertex 72.75 60.0 -1.09026535628392e-14
vertex 71.8473960844116 60.0 1.85595740399156
endloop
endfacet
facet normal 0.189694375123819 -0.0 0.981843187095772
outer loop
vertex 10.0 0.0 5.0
vertex 7.97367172745376 60.0 5.39149130992432
vertex 7.97367172745376 0.0 5.39149130992432
endloop
endfacet
facet normal 0.189694375123819 -0.0 0.981843187095772
outer loop
vertex 7.97367172745376 60.0 5.39149130992432
vertex 10.0 0.0 5.0
vertex 10.0 60.0 5.0
endloop
endfacet
facet normal 2.138363209515e-16 7.85589666456723e-33 1.0
outer loop
vertex 62.7499999999999 0.0 4.99999999999999
vertex 10.0 60.0 5.0
vertex 10.0 0.0 5.0
endloop
endfacet
facet normal 2.138363209515e-16 7.85589666456723e-33 1.0
outer loop
vertex 10.0 60.0 5.0
vertex 62.7499999999999 0.0 4.99999999999999
vertex 62.7499999999999 60.0 4.99999999999999
endloop
endfacet
facet normal -0.560133796654236 -0.0 0.82840215466023
outer loop
vertex 3.96446609406726 0.0 4.57106781186548
vertex 2.25480947161671 60.0 3.4150635094611
vertex 2.25480947161671 0.0 3.4150635094611
endloop
endfacet
facet normal -0.560133796654236 -0.0 0.82840215466023
outer loop
vertex 2.25480947161671 60.0 3.4150635094611
vertex 3.96446609406726 0.0 4.57106781186548
vertex 3.96446609406726 60.0 4.57106781186548
endloop
endfacet
facet normal 0.070889020090682 -0.0 0.997484208812642
outer loop
vertex 66.8349364905389 0.0 5.24519052838327
vertex 64.7763282725462 60.0 5.3914913099243
vertex 64.7763282725462 0.0 5.3914913099243
endloop
endfacet
facet normal 0.070889020090682 -0.0 0.997484208812642
outer loop
vertex 64.7763282725462 60.0 5.3914913099243
vertex 66.8349364905389 0.0 5.24519052838327
vertex 66.8349364905389 60.0 5.24519052838327
endloop
endfacet
facet normal -0.755453954995707 0.0 0.655201741360128
outer loop
vertex 2.25480947161671 60.0 3.4150635094611
vertex 0.902603915588288 0.0 1.85595740399157
vertex 2.25480947161671 0.0 3.4150635094611
endloop
endfacet
facet normal -0.755453954995707 0.0 0.655201741360128
outer loop
vertex 0.902603915588288 0.0 1.85595740399157
vertex 2.25480947161671 60.0 3.4150635094611
vertex 0.902603915588288 60.0 1.85595740399157
endloop
endfacet
facet normal -1.49864653784731e-16 -2.19049807947005e-34 -1.0
outer loop
vertex 72.75 60.0 -1.09026535628392e-14
vertex 0.0 0.0 0.0
vertex 0.0 60.0 0.0
endloop
endfacet
facet normal -1.49864653784731e-16 -2.19049807947005e-34 -1.0
outer loop
vertex 0.0 0.0 0.0
vertex 72.75 60.0 -1.09026535628392e-14
vertex 72.75 0.0 -1.09026535628392e-14
endloop
endfacet
endsolid WEFT-form-test-0
